<svg xmlns="http://www.w3.org/2000/svg" viewBox="0 0 86.09 81.54"><title>Varlık 1</title><g id="katman_2" data-name="katman 2"><g id="Layer_1" data-name="Layer 1"><path d="M85.56,5.91a1.35,1.35,0,0,0-.84-.28h0c-7.4,0-16.09.25-25.84.63.13-.34.3-.78.49-1.31l.13,0a.82.82,0,0,0,.85-.39c.92-1.85.84-3.26-.21-4.16A1.52,1.52,0,0,0,59,0a1.19,1.19,0,0,0-1.07.74c-.72,1.61-1.55,3.51-2.47,5.69l-18.81.85a1.12,1.12,0,0,0-.85.57,1,1,0,0,0,0,1,1,1,0,0,0,.92.51q12.06-.06,17.54-.12c-1.43,3.49-3.43,8.46-5.95,14.79C47,27.28,46,29.84,45.21,31.72a60.28,60.28,0,0,0-10.67,3.69,183.67,183.67,0,0,0,7.93-20.62,1.27,1.27,0,0,0-.79-1.66,1.32,1.32,0,0,0-1.8.53c-.14.22-.44.76-.93,1.62s-.84,1.47-1.08,1.87-.61.93-1.13,1.65a11.5,11.5,0,0,1-1.37,1.62,13.42,13.42,0,0,1-1.44,1.18,5,5,0,0,1-1.65.83,3.5,3.5,0,0,1-1.31.18,1.33,1.33,0,0,1-1.08-.49c-.29-.41-.5-1.34.14-3.45A10.56,10.56,0,0,1,32.56,14a.87.87,0,0,0,.06-1.25,1,1,0,0,0-1.27-.27A8.65,8.65,0,0,0,28,16.11a9.9,9.9,0,0,0-1.3,5.49,4.2,4.2,0,0,0,2.94,4c2.11.77,4.37.05,6.73-2.15-.89,2.09-2.43,5.64-4.61,10.62-.5,1.22-1,2.41-1.51,3.55A73.76,73.76,0,0,0,14.67,49.05C2.71,60.57-2,70.13.75,77.47A7.14,7.14,0,0,0,3,80.75a3.81,3.81,0,0,0,2.26.79A3,3,0,0,0,6,81.47a8,8,0,0,0,3-1.34,19.78,19.78,0,0,0,2.72-2.26,23,23,0,0,0,2.28-2.67,85.29,85.29,0,0,0,6.74-10.55c2.23-4,4-7.38,5.15-9.93s2.92-6.34,5.2-11.39l1.39-3.1a63.58,63.58,0,0,1,11.3-4.7q-4.9,12.22-6.94,17.35c-.4,1-.91,2.15-1.53,3.5S34,59,33.5,60.17s-1,2.37-1.55,3.66-1,2.59-1.43,3.92a31,31,0,0,0-1,3.76,1.54,1.54,0,0,0,1,1.85,1.85,1.85,0,0,0,.71.15,1.58,1.58,0,0,0,1.31-.77,33.92,33.92,0,0,0,2.57-5c.76-1.8,1.58-4,2.44-6.47s1.46-4.23,1.81-5.22q1.85-4.61,7.18-18.18c.18-.5.63-1.68,1.34-3.49A58.77,58.77,0,0,1,62,32.91a1.22,1.22,0,0,0,1.12-1.83,1.36,1.36,0,0,0-1.07-.7h0a52.26,52.26,0,0,0-12.79.53l2.15-5.43C54.26,18.29,56.34,13,57.76,9.22,65.25,9.13,72,9,77.8,8.77a1,1,0,0,0,.77.19l6.23-.47a1.87,1.87,0,0,0,.76-.34,1.29,1.29,0,0,0,.49-.73,2,2,0,0,0,0-.78A1.25,1.25,0,0,0,85.56,5.91ZM27.9,42.85C24.14,51.09,20.48,58.3,17,64.28v0a2.63,2.63,0,0,0-.15.33c0,.1-.08.16-.09.19a2.66,2.66,0,0,0-.22.39c-.87,1.61-1.68,3-2.39,4.16s-1.73,2.66-3,4.52a15,15,0,0,1-3.64,3.87,2.27,2.27,0,0,1-2.64.33,3.24,3.24,0,0,1-1.36-2.42,10.26,10.26,0,0,1,0-3.41,18.39,18.39,0,0,1,.8-3C5.89,64.83,9,60.05,13.56,55A68.58,68.58,0,0,1,27.9,42.85Z"/></g></g></svg>